<svg width="38" height="38" viewBox="0 0 38 38" fill="none" xmlns="http://www.w3.org/2000/svg">
<path fill-rule="evenodd" clip-rule="evenodd" d="M38 19C38 8.50657 29.4934 0 19 0C8.50657 0 0 8.50657 0 19C0 29.4934 8.50657 38 19 38C29.4934 38 38 29.4934 38 19Z" fill="#333333"/>
<path fill-rule="evenodd" clip-rule="evenodd" d="M21.375 19V26.125C21.375 27.4367 20.3117 28.5 19 28.5C17.6883 28.5 16.625 27.4367 16.625 26.125V19C16.625 17.6883 17.6883 16.625 19 16.625C20.3117 16.625 21.375 17.6883 21.375 19Z" fill="white"/>
<path fill-rule="evenodd" clip-rule="evenodd" d="M21.375 11.875C21.375 10.5616 20.3134 9.5 19 9.5C17.6866 9.5 16.625 10.5616 16.625 11.875C16.625 13.1884 17.6866 14.25 19 14.25C20.3134 14.25 21.375 13.1884 21.375 11.875Z" fill="white"/>
</svg>
