<svg width="124" height="766" viewBox="0 0 124 766" fill="none" xmlns="http://www.w3.org/2000/svg">
<path d="M109 764.5C109 725.686 122 711.686 122 672.873C122 634.059 2 634.059 2 595.245C2 556.432 122 556.432 122 517.709C122 478.894 2 478.894 2 440.173C2 401.358 122 401.358 122 362.637C122 323.822 2.00001 323.822 2.00001 285.01C2.00001 246.196 122 246.196 122 207.381C122 168.57 2.00001 168.57 2.00001 129.755C2.00001 90.9407 122 90.9408 122 52.1262C122 13.3146 81.5 40.8145 81.5 2" stroke="#4F4F4F" stroke-width="3" stroke-miterlimit="10" stroke-linecap="round"/>
</svg>
