<svg width="766" height="124" viewBox="0 0 766 124" fill="none" xmlns="http://www.w3.org/2000/svg">
<path d="M2 109C40.8137 109 54.8137 122 93.6273 122C132.441 122 132.441 2 171.255 2C210.068 2 210.068 122 248.791 122C287.606 122 287.606 2 326.327 2C365.142 2 365.142 122 403.863 122C442.678 122 442.678 2 481.49 2C520.304 2 520.304 122 559.119 122C597.93 122 597.93 2 636.745 2C675.559 2 675.559 122 714.374 122C753.185 122 725.685 81.5 764.5 81.5" stroke="#4F4F4F" stroke-width="3" stroke-miterlimit="10" stroke-linecap="round"/>
</svg>
